<svg xmlns="http://www.w3.org/2000/svg" version="1.1" xmlns:xlink="http://www.w3.org/1999/xlink" xmlns:svgjs="http://svgjs.dev/svgjs" width="100%" height="100%" viewBox="0 0 1000 600"><rect width="1000" height="600" x="0" y="0" fill="#808000"/><g><circle r="166.66666666666666" cx="405.450693766276" cy="427.67284782673187" fill="#808000" transform="matrix(0.5234856362229608,0,0,0.523485636222961,0,76.1193888033768)"/><path d="M331.6125514566741 502.6727728096462L331.6125514566741 502.6727728096462Q307.3737709859666 502.6727728096462 293.9522975021864 494.29937591976545Q280.5308240184062 485.9259790298846 275.2022987248457 468.93880065041355Q269.8737734312852 451.91155817099093 269.8737734312852 425.95002140236534L269.8737734312852 425.95002140236534Q269.8737734312852 401.1503435323357 275.80326022411947 384.96444715189625Q281.6926829170021 368.81861487140844 295.27441280058866 360.7657307811403Q308.8160785842236 352.67278259092063 331.6125514566741 352.67278259092063L331.6125514566741 352.67278259092063Q354.68947302878576 352.67278259092063 368.23113881242074 360.7657307811403Q381.81286869600723 368.81861487140844 387.7022913888899 384.96444715189625Q393.63177818172414 401.1503435323357 393.63177818172414 425.95002140236534L393.63177818172414 425.95002140236534Q393.63177818172414 451.91155817099093 388.3032528881636 468.93880065041355Q382.9346634946516 485.9259790298846 369.55325411082293 494.29937591976545Q356.13178062704276 502.6727728096462 331.6125514566741 502.6727728096462ZM331.6125514566741 483.36187663298335L331.6125514566741 483.36187663298335Q348.3192811364841 483.36187663298335 356.6926780263649 477.4323898401491Q365.06607491624567 471.5029030473149 367.7904337129533 458.84264746261476Q370.5548566096125 446.14232777796303 370.5548566096125 425.95002140236534L370.5548566096125 425.95002140236534Q370.5548566096125 406.03816372642876 367.0692799138248 394.21925424071185Q363.6237673179887 382.400344754995 355.25037042810794 377.1920117612892Q346.8769735382271 371.98367876758346 331.6125514566741 371.98367876758346L331.6125514566741 371.98367876758346Q316.5885139748306 371.98367876758346 308.0949247850951 377.1920117612892Q299.60133559535956 382.400344754995 296.11575889957186 394.21925424071185Q292.6702463037357 406.03816372642876 292.6702463037357 425.95002140236534L292.6702463037357 425.95002140236534Q292.6702463037357 446.14232777796303 295.39460510044336 458.84264746261476Q298.15902799710256 471.5029030473149 306.49236078703177 477.4323898401491Q314.86575767691255 483.36187663298335 331.6125514566741 483.36187663298335ZM479.8897853774817 502.6727728096462L479.8897853774817 502.6727728096462Q458.255171403627 502.6727728096462 445.6750440188301 494.29937591976545Q433.1349807339847 485.9259790298846 427.64619904061783 469.49969804973574Q422.1974814472026 453.0734170695868 422.1974814472026 428.5541878992182L422.1974814472026 428.5541878992182Q422.1974814472026 401.1503435323357 429.6894681381486 384.56380615238044Q437.18145482909455 367.9772687724252 450.7231206127295 360.32502568167286Q464.304850496316 352.67278259092063 482.77440057399565 352.67278259092063L482.77440057399565 352.67278259092063Q511.62055253913513 352.67278259092063 526.324077221366 368.6984225715537Q541.0276019035969 384.6839984522352 541.0276019035969 420.18079100933744L541.0276019035969 420.18079100933744L539.8657430050009 437.20803348876007L444.9538902197016 437.20803348876007Q445.27440301931426 459.68399356159796 453.32728710958236 471.2224543476538Q461.4202352998021 482.7609151337096 482.45388777438296 482.7609151337096L482.45388777438296 482.7609151337096Q490.5468359646027 482.7609151337096 500.20228405293415 482.3202100342422Q509.85773214126556 481.91956903472635 519.3929879297423 481.31860753545266Q528.9282437182189 480.75771013613047 535.5388202102301 480.1567486368567L535.5388202102301 480.1567486368567L536.139781709504 497.78495261555315Q529.20869241788 498.9067474141974 519.232731529936 500.06860631279335Q509.29683474194337 501.23046521138923 498.92023285448346 501.9516190105177Q488.54363096702355 502.6727728096462 479.8897853774817 502.6727728096462ZM444.9538902197016 419.01893211074156L444.9538902197016 419.01893211074156L518.5115777308074 419.01893211074156Q518.5115777308074 392.4964979427938 510.0179885410719 381.95963965552755Q501.52439935133634 371.4227813682613 482.77440057399565 371.4227813682613L482.77440057399565 371.4227813682613Q464.58529919597714 371.4227813682613 454.7695947078393 382.400344754995Q444.9538902197016 393.33784404177703 444.9538902197016 419.01893211074156Z " fill="white" transform="matrix(0.5234856362229608,0,0,0.523485636222961,0,76.1193888033768)"/><path d="M689.6799098677619 468.9322176780855L689.6799098677619 468.9322176780855Q676.2414378345267 468.9322176780855 668.8003004276937 464.2898364302406Q661.359163020861 459.6474551823956 658.404920408596 450.22941858389675Q655.450677796331 440.78916963492975 655.450677796331 426.39556653156365L655.450677796331 426.39556653156365Q655.450677796331 412.64612159177403 658.7381056656184 403.67233200263837Q662.0033211844376 394.72075476397083 669.533307993143 390.2560723198711Q677.0410824513802 385.7691775253033 689.6799098677619 385.7691775253033L689.6799098677619 385.7691775253033Q702.4742237374209 385.7691775253033 709.9819981956581 390.2560723198711Q717.5119850043635 394.72075476397083 720.7772005231826 403.67233200263837Q724.06462839247 412.64612159177403 724.06462839247 426.39556653156365L724.06462839247 426.39556653156365Q724.06462839247 440.78916963492975 721.1103857802051 450.22941858389675Q718.1339308174719 459.6474551823956 710.7150057611072 464.2898364302406Q703.2738683542744 468.9322176780855 689.6799098677619 468.9322176780855ZM689.6799098677619 458.22586475243355L689.6799098677619 458.22586475243355Q698.9424600129837 458.22586475243355 703.5848412608286 454.9384368831462Q708.2272225086737 451.65100901385887 709.7376623405083 444.6319062659211Q711.2703145228112 437.5905911675151 711.2703145228112 426.39556653156365L711.2703145228112 426.39556653156365Q711.2703145228112 415.35602834888925 709.3378400320815 408.80338496078275Q707.4275778918199 402.25074157267625 702.7851966439749 399.36313601181575Q698.14281539613 396.47553045095526 689.6799098677619 396.47553045095526L689.6799098677619 396.47553045095526Q681.3502784422029 396.47553045095526 676.6412601429535 399.36313601181575Q671.932241843704 402.25074157267625 669.9997673529743 408.80338496078275Q668.0895052127127 415.35602834888925 668.0895052127127 426.39556653156365L668.0895052127127 426.39556653156365Q668.0895052127127 437.5905911675151 669.5999450445474 444.6319062659211Q671.1325972268504 451.65100901385887 675.7527661242272 454.9384368831462Q680.3951473720721 458.22586475243355 689.6799098677619 458.22586475243355ZM755.89492661334 502.67277803921695L743.5670721035125 502.67277803921695L743.5670721035125 387.36846675901063L755.89492661334 387.36846675901063L755.89492661334 393.1214655302635Q758.449346917178 391.52217629655615 762.3587205995739 389.85625001144433Q766.2903066324377 388.1681113758643 770.7549890765374 386.96864445058384Q775.2418838711053 385.7691775253033 779.3955934086507 385.7691775253033L779.3955934086507 385.7691775253033Q794.5888411288706 385.7691775253033 801.6301562272765 395.45376232942004Q808.6714713256824 405.1161347830686 808.6714713256824 426.39556653156365L808.6714713256824 426.39556653156365Q808.6714713256824 442.0552736116148 805.0730705498408 451.4288855091773Q801.4746697739995 460.7802850562717 793.7003471101443 464.84514519194454Q785.9482367967571 468.9322176780855 773.6425946373979 468.9322176780855L773.6425946373979 468.9322176780855Q768.6892404829987 468.9322176780855 763.647036926727 468.288059514509Q758.6048333704553 467.64390135093237 755.89492661334 467.1774419911011L755.89492661334 467.1774419911011L755.89492661334 502.67277803921695ZM772.9984364738214 458.0481659486883L772.9984364738214 458.0481659486883Q781.6390408059347 458.0481659486883 786.6812443622064 454.8495874812736Q791.7012355680101 451.65100901385887 793.7891965120168 444.6985433173255Q795.8771574560237 437.74607762079216 795.8771574560237 426.39556653156365L795.8771574560237 426.39556653156365Q795.8771574560237 410.247187741213 791.0792897549015 403.6056949512339Q786.2814220537796 396.9642021612548 777.6408177216663 396.9642021612548L777.6408177216663 396.9642021612548Q773.7980810906749 396.9642021612548 769.7110086045341 397.9193332313855Q765.6461484688612 398.8744643015163 761.9588982911469 400.25163003054206Q758.293860463901 401.6065834090997 755.89492661334 403.05038618952995L755.89492661334 403.05038618952995L755.89492661334 456.44887671498094Q758.449346917178 456.7820619720033 763.4027010715772 457.42622013557985Q768.3560552259764 458.0481659486883 772.9984364738214 458.0481659486883ZM856.3169630798807 468.9322176780855L856.3169630798807 468.9322176780855Q844.3222938270756 468.9322176780855 837.3698281305421 464.2898364302406Q830.4173624340087 459.6474551823956 827.3742704198712 450.540391490451Q824.3311784057337 441.43332779850635 824.3311784057337 427.8393693119939L824.3311784057337 427.8393693119939Q824.3311784057337 412.64612159177403 828.4848879432791 403.4502084979568Q832.6608098312927 394.2542954041395 840.1685842895299 390.0117364647214Q847.6763587477674 385.7691775253033 857.9162523135881 385.7691775253033L857.9162523135881 385.7691775253033Q873.9091446506616 385.7691775253033 882.0610772724754 394.65411771256635Q890.2352222447573 403.5168455493613 890.2352222447573 423.1969880641489L890.2352222447573 423.1969880641489L889.5910640811808 432.6372370131159L836.9700058221154 432.6372370131159Q837.1254922753924 445.09836562575236 841.6123870699603 451.4955225605818Q846.07706951406 457.8926794954112 857.7607658603108 457.8926794954112L857.7607658603108 457.8926794954112Q862.2476606548787 457.8926794954112 867.6008371177047 457.64834364026143Q872.9540135805307 457.42622013557985 878.2405529919522 457.0930348785575Q883.5048800529055 456.7820619720033 887.1921302306198 456.44887671498094L887.1921302306198 456.44887671498094L887.5031031371739 466.2223109209703Q883.6603665061828 466.8442567340787 878.1517035900795 467.4884148976553Q872.6430406739764 468.1325730612318 866.8678295522554 468.5323953696587Q861.1148307810026 468.9322176780855 856.3169630798807 468.9322176780855ZM836.9700058221154 422.55282990057236L836.9700058221154 422.55282990057236L877.7518812816527 422.55282990057236Q877.7518812816527 407.848253890652 873.0428629824032 402.00640571752655Q868.3116323326858 396.1645575444011 857.9162523135881 396.1645575444011L857.9162523135881 396.1645575444011Q847.8540575515126 396.1645575444011 842.4120316868139 402.25074157267625Q836.9700058221154 408.3147132504833 836.9700058221154 422.55282990057236ZM921.0881770450283 467.3329284443782L908.7825348856691 467.3329284443782L908.7825348856691 387.36846675901063L921.0881770450283 387.36846675901063L921.0881770450283 392.9659790769864Q923.8202961526117 391.366689843279 927.8851562882846 389.76740060957167Q931.9722287744255 388.1681113758643 936.6146100222704 386.96864445058384Q941.2347789196474 385.7691775253033 945.566187260938 385.7691775253033L945.566187260938 385.7691775253033Q956.6057254436123 385.7691775253033 962.4253612662696 389.67855120769906Q968.2672094393952 393.61013724056295 970.5106568366791 402.25074157267625Q972.7541042339631 410.8691335543214 972.7541042339631 424.9517637511334L972.7541042339631 424.9517637511334L972.7541042339631 467.3329284443782L960.2707632708584 467.3329284443782L960.2707632708584 425.44043546143286Q960.2707632708584 415.04505544233507 959.0712963455778 408.80338496078275Q957.8718294202974 402.5617144792305 954.2734286444559 399.7629583202426Q950.6750278686143 396.9642021612548 943.3227398636541 396.9642021612548L943.3227398636541 396.9642021612548Q939.3245167793857 396.9642021612548 935.0819578399676 397.8526961799811Q930.8393989005494 398.7189778482392 927.1743610733035 400.07393122679684Q923.4871108955892 401.4510969558226 921.0881770450283 402.7172009325076L921.0881770450283 402.7172009325076L921.0881770450283 467.3329284443782ZM1042.4786723535099 429.10547328867887L994.0113236319899 429.10547328867887L994.0113236319899 417.5994757461732L1042.4786723535099 417.5994757461732L1042.4786723535099 429.10547328867887ZM1092.8562832152916 468.9322176780855L1092.8562832152916 468.9322176780855Q1080.8616139624864 468.9322176780855 1073.9091482659528 464.2898364302406Q1066.9566825694196 459.6474551823956 1063.913590555282 450.540391490451Q1060.8704985411446 441.43332779850635 1060.8704985411446 427.8393693119939L1060.8704985411446 427.8393693119939Q1060.8704985411446 412.64612159177403 1065.0242080786902 403.4502084979568Q1069.1779176162354 394.2542954041395 1076.7079044249408 390.0117364647214Q1084.215678883178 385.7691775253033 1094.4555724489987 385.7691775253033L1094.4555724489987 385.7691775253033Q1110.4484647860722 385.7691775253033 1118.6003974078862 394.65411771256635Q1126.7523300297003 403.5168455493613 1126.7523300297003 423.1969880641489L1126.7523300297003 423.1969880641489L1126.1303842165917 432.6372370131159L1073.509325957526 432.6372370131159Q1073.6648124108033 445.09836562575236 1078.1517072053712 451.4955225605818Q1082.6163896494709 457.8926794954112 1094.3000859957215 457.8926794954112L1094.3000859957215 457.8926794954112Q1098.7647684398216 457.8926794954112 1104.1401572531154 457.64834364026143Q1109.4933337159414 457.42622013557985 1114.7576607768951 457.0930348785575Q1120.0442001883166 456.7820619720033 1123.7314503660305 456.44887671498094L1123.7314503660305 456.44887671498094L1124.042423272585 466.2223109209703Q1120.1996866415934 466.8442567340787 1114.6910237254906 467.4884148976553Q1109.1601484589191 468.1325730612318 1103.4071496876663 468.5323953696587Q1097.6541509164135 468.9322176780855 1092.8562832152916 468.9322176780855ZM1073.509325957526 422.55282990057236L1073.509325957526 422.55282990057236L1114.2912014170633 422.55282990057236Q1114.2912014170633 407.848253890652 1109.559970767346 402.00640571752655Q1104.8509524680967 396.1645575444011 1094.4555724489987 396.1645575444011L1094.4555724489987 396.1645575444011Q1084.3711653364553 396.1645575444011 1078.9513518222248 402.25074157267625Q1073.509325957526 408.3147132504833 1073.509325957526 422.55282990057236ZM1158.58262825057 467.3329284443782L1146.2769860912108 467.3329284443782L1146.2769860912108 352.6727753277484L1158.58262825057 352.6727753277484L1158.58262825057 467.3329284443782ZM1210.8927136030811 468.9322176780855L1210.8927136030811 468.9322176780855Q1198.898044350276 468.9322176780855 1191.9233663032746 464.2898364302406Q1184.9709006067415 459.6474551823956 1181.9278085926035 450.540391490451Q1178.9069289289341 441.43332779850635 1178.9069289289341 427.8393693119939L1178.9069289289341 427.8393693119939Q1178.9069289289341 412.64612159177403 1183.0606384664798 403.4502084979568Q1187.214348004025 394.2542954041395 1194.7221224622626 390.0117364647214Q1202.252109270968 385.7691775253033 1212.4920028367887 385.7691775253033L1212.4920028367887 385.7691775253033Q1228.4848951738618 385.7691775253033 1236.6368277956758 394.65411771256635Q1244.7887604174898 403.5168455493613 1244.7887604174898 423.1969880641489L1244.7887604174898 423.1969880641489L1244.144602253913 432.6372370131159L1191.5235439948478 432.6372370131159Q1191.7012427985928 445.09836562575236 1196.1659252426925 451.4955225605818Q1200.6528200372604 457.8926794954112 1212.3143040330433 457.8926794954112L1212.3143040330433 457.8926794954112Q1216.8011988276112 457.8926794954112 1222.1543752904372 457.64834364026143Q1227.5075517532632 457.42622013557985 1232.7940911646847 457.0930348785575Q1238.0806305761062 456.7820619720033 1241.7456684033523 456.44887671498094L1241.7456684033523 456.44887671498094L1242.0788536603745 466.2223109209703Q1238.2361170293834 466.8442567340787 1232.705241762812 467.4884148976553Q1227.1965788467087 468.1325730612318 1221.4435800754563 468.5323953696587Q1215.690581304203 468.9322176780855 1210.8927136030811 468.9322176780855ZM1191.5235439948478 422.55282990057236L1191.5235439948478 422.55282990057236L1232.3054194543852 422.55282990057236Q1232.3054194543852 407.848253890652 1227.596401155136 402.00640571752655Q1222.8873828558862 396.1645575444011 1212.4920028367887 396.1645575444011L1212.4920028367887 396.1645575444011Q1202.4075957242449 396.1645575444011 1196.9655698595461 402.25074157267625Q1191.5235439948478 408.3147132504833 1191.5235439948478 422.55282990057236ZM1292.9229238819871 468.9322176780855L1292.9229238819871 468.9322176780855Q1280.2840964656057 468.9322176780855 1273.0872949139225 464.6896587386674Q1265.8904933622393 460.4470997992493 1262.9362507499745 451.02906320075044Q1259.9820081377097 441.58881425178345 1259.9820081377097 426.0623812745413L1259.9820081377097 426.0623812745413Q1259.9820081377097 411.513291717898 1263.2694360069968 402.6505638811031Q1266.5346515258161 393.76562369384004 1273.886939530776 389.76740060957167Q1281.2614398862047 385.7691775253033 1293.0784103352644 385.7691775253033L1293.0784103352644 385.7691775253033Q1295.8105294428478 385.7691775253033 1299.7199031252435 386.16899983373014Q1303.6514891581073 386.568822142157 1307.805198695653 387.12413090386093Q1311.9589082331986 387.67943966556487 1315.0020002473361 388.1681113758643L1315.0020002473361 388.1681113758643L1314.5133285370366 398.408004941685Q1311.8034217799213 398.07481968466266 1308.2716580554843 397.7638467781084Q1304.7621066815154 397.45287387155423 1301.4080417608238 397.2085380164045Q1298.0539768401318 396.9642021612548 1295.8105294428478 396.9642021612548L1295.8105294428478 396.9642021612548Q1286.6812534004348 396.9642021612548 1281.6612621946315 399.85180772211527Q1276.6190586383595 402.7172009325076 1274.6199470962256 409.0477208159325Q1272.6208355540912 415.35602834888925 1272.6208355540912 426.0623812745413L1272.6208355540912 426.0623812745413Q1272.6208355540912 437.74607762079216 1274.3756112410756 444.6985433173255Q1276.13038692806 451.65100901385887 1281.0837410824593 454.69410102799645Q1286.0593075873267 457.7371930421341 1295.8105294428478 457.7371930421341L1295.8105294428478 457.7371930421341Q1298.0539768401318 457.7371930421341 1301.474678812228 457.49285718698434Q1304.9175931347927 457.2485213318346 1308.5159939106343 456.9375484252804Q1312.1143946864759 456.6265755187262 1314.8465137940589 456.44887671498094L1314.8465137940589 456.44887671498094L1315.1574867006134 466.6887702808016Q1311.9589082331986 467.1774419911011 1307.805198695653 467.64390135093237Q1303.6514891581073 468.1325730612318 1299.653266073839 468.5323953696587Q1295.6550429895706 468.9322176780855 1292.9229238819871 468.9322176780855ZM1359.2934270808423 469.0877041313626L1359.2934270808423 469.0877041313626Q1350.9860080057515 469.0877041313626 1346.0992909027568 466.5332838275245Q1341.2347861502303 463.97886352368636 1339.1468252062232 457.64834364026143Q1337.0588642622165 451.3400361073046 1337.0588642622165 439.834038564799L1337.0588642622165 439.834038564799L1337.0588642622165 398.07481968466266L1325.7083531729882 398.07481968466266L1325.7083531729882 387.36846675901063L1337.0588642622165 387.36846675901063L1337.0588642622165 362.8904565431009L1349.3867187720439 362.8904565431009L1349.3867187720439 387.36846675901063L1374.4866748010622 387.36846675901063L1374.4866748010622 398.07481968466266L1349.3867187720439 398.07481968466266L1349.3867187720439 436.1467883870848Q1349.3867187720439 444.6319062659211 1350.0975139870252 449.34092456517044Q1350.8305215524742 454.0499428644199 1353.2294554030354 455.9824173551496Q1355.6283892535962 457.8926794954112 1360.7372298612727 457.8926794954112L1360.7372298612727 457.8926794954112Q1362.3365190949798 457.8926794954112 1364.8909393988183 457.7371930421341Q1367.4453597026563 457.58170658885695 1370.088629408367 457.33737073370725Q1372.7318991140778 457.0930348785575 1374.8198600580845 456.9375484252804L1374.8198600580845 456.9375484252804L1375.6195046749385 467.3329284443782Q1372.087740950501 467.82160015467764 1367.289873249379 468.44354596778606Q1362.492005548257 469.0877041313626 1359.2934270808423 469.0877041313626ZM1401.51910532081 467.3329284443782L1389.2134631614508 467.3329284443782L1389.2134631614508 387.36846675901063L1401.51910532081 387.36846675901063L1401.51910532081 398.07481968466266Q1404.5621973349475 396.009071091124 1409.2045785827927 393.52128783869034Q1413.8247474801692 391.0557169367248 1419.4222597981452 388.8122695394409Q1425.0197721161207 386.568822142157 1430.6172844340967 385.6136910720262L1430.6172844340967 385.6136910720262L1430.6172844340967 398.2525184884079Q1425.1974709198662 399.36313601181575 1419.5999586018902 401.20676110067285Q1414.0024462839147 403.05038618952995 1409.2712156341972 405.1161347830686Q1404.5621973349475 407.2040957270754 1401.51910532081 408.80338496078275L1401.51910532081 408.80338496078275L1401.51910532081 467.3329284443782ZM1475.3973829779025 468.9322176780855L1475.3973829779025 468.9322176780855Q1461.9811232951351 468.9322176780855 1454.5399858883025 464.2898364302406Q1447.0988484814698 459.6474551823956 1444.1446058692045 450.22941858389675Q1441.1903632569397 440.78916963492975 1441.1903632569397 426.39556653156365L1441.1903632569397 426.39556653156365Q1441.1903632569397 412.64612159177403 1444.455578775759 403.67233200263837Q1447.743006645046 394.72075476397083 1455.2507811032833 390.2560723198711Q1462.7807679119887 385.7691775253033 1475.3973829779025 385.7691775253033L1475.3973829779025 385.7691775253033Q1488.1916968475612 385.7691775253033 1495.7216836562666 390.2560723198711Q1503.2294581145038 394.72075476397083 1506.5168859837913 403.67233200263837Q1509.7821015026107 412.64612159177403 1509.7821015026107 426.39556653156365L1509.7821015026107 426.39556653156365Q1509.7821015026107 440.78916963492975 1506.8278588903454 450.22941858389675Q1503.8736162780806 459.6474551823956 1496.4324788712474 464.2898364302406Q1488.9913414644147 468.9322176780855 1475.3973829779025 468.9322176780855ZM1475.3973829779025 458.22586475243355L1475.3973829779025 458.22586475243355Q1484.6821454735923 458.22586475243355 1489.3245267214375 454.9384368831462Q1493.9669079692821 451.65100901385887 1495.477347801117 444.6319062659211Q1496.9877876329515 437.5905911675151 1496.9877876329515 426.39556653156365L1496.9877876329515 426.39556653156365Q1496.9877876329515 415.35602834888925 1495.0775254926903 408.80338496078275Q1493.1672633524286 402.25074157267625 1488.5248821045834 399.36313601181575Q1483.8825008567387 396.47553045095526 1475.3973829779025 396.47553045095526L1475.3973829779025 396.47553045095526Q1467.0899639028116 396.47553045095526 1462.380945603562 399.36313601181575Q1457.6497149538445 402.25074157267625 1455.7394528135828 408.80338496078275Q1453.806978322853 415.35602834888925 1453.806978322853 426.39556653156365L1453.806978322853 426.39556653156365Q1453.806978322853 437.5905911675151 1455.339630505156 444.6319062659211Q1456.850070336991 451.65100901385887 1461.4924515848356 454.9384368831462Q1466.1348328326808 458.22586475243355 1475.3973829779025 458.22586475243355ZM1541.6123997234804 467.3329284443782L1529.3067575641212 467.3329284443782L1529.3067575641212 387.36846675901063L1541.6123997234804 387.36846675901063L1541.6123997234804 392.9659790769864Q1544.3445188310639 391.366689843279 1548.4093789667368 389.76740060957167Q1552.4964514528774 388.1681113758643 1557.1388327007226 386.96864445058384Q1561.7590015980995 385.7691775253033 1566.0904099393902 385.7691775253033L1566.0904099393902 385.7691775253033Q1577.1299481220644 385.7691775253033 1582.9495839447218 389.67855120769906Q1588.7914321178473 393.61013724056295 1591.0348795151313 402.25074157267625Q1593.2783269124152 410.8691335543214 1593.2783269124152 424.9517637511334L1593.2783269124152 424.9517637511334L1593.2783269124152 467.3329284443782L1580.7949859493106 467.3329284443782L1580.7949859493106 425.44043546143286Q1580.7949859493106 415.04505544233507 1579.5955190240297 408.80338496078275Q1578.3960520987494 402.5617144792305 1574.7976513229078 399.7629583202426Q1571.1992505470662 396.9642021612548 1563.8469625421062 396.9642021612548L1563.8469625421062 396.9642021612548Q1559.8487394578378 396.9642021612548 1555.60618051842 397.8526961799811Q1551.3636215790016 398.7189778482392 1547.6985837517555 400.07393122679684Q1544.0113335740411 401.4510969558226 1541.6123997234804 402.7172009325076L1541.6123997234804 402.7172009325076L1541.6123997234804 467.3329284443782ZM1640.3018728535048 468.9322176780855L1640.3018728535048 468.9322176780855Q1636.6146226757905 468.9322176780855 1631.4169326662418 468.44354596778606Q1626.219242656693 467.97708660795473 1621.1104020490166 467.2440790425055Q1615.979349090872 466.5332838275245 1611.981126006604 465.88912566394794L1611.981126006604 465.88912566394794L1612.6252841701803 455.18277273829597Q1616.6235072544487 455.64923209812724 1621.6657108107206 456.29339026170385Q1626.707914366992 456.9375484252804 1631.5057820681145 457.33737073370725Q1636.3036497692365 457.7371930421341 1639.1690429796286 457.7371930421341L1639.1690429796286 457.7371930421341Q1645.7216863677354 457.7371930421341 1650.053094709026 456.53772611685355Q1654.3622906998485 455.33825919157306 1656.6057380971324 452.4506536307125Q1658.8491854944164 449.5852604203202 1658.8491854944164 444.2987210088987L1658.8491854944164 444.2987210088987Q1658.8491854944164 440.3004979246303 1657.1610468588365 438.0570505273464Q1655.4951205737248 435.83581548053064 1650.9193763772842 434.3920127001004Q1646.3658445313117 432.94820991967015 1637.7252401991982 431.659893592517L1637.7252401991982 431.659893592517Q1628.773662960531 430.23830316255487 1622.7763283341283 428.06149281667547Q1616.778993707726 425.90689482126413 1613.9136004973334 421.5976988304416Q1611.0259949364731 417.26629048915083 1611.0259949364731 409.2698443206141L1611.0259949364731 409.2698443206141Q1611.0259949364731 400.31826708194654 1615.1797044740183 395.2094264742703Q1619.333414011564 390.0783735161259 1625.974906801543 387.92377552071457Q1632.6163995915222 385.7691775253033 1639.8132011432053 385.7691775253033L1639.8132011432053 385.7691775253033Q1644.3000959377732 385.7691775253033 1649.6532724005992 386.25784923560275Q1655.0064488634252 386.7243085954341 1660.1152894711013 387.4573161608833Q1665.246342429246 388.1681113758643 1668.9113802564916 388.8122695394409L1668.9113802564916 388.8122695394409L1668.6004073499375 399.5186224650929Q1664.7576707189464 398.8744643015163 1659.64883011127 398.31915553981236Q1654.5177771531257 397.7638467781084 1649.4089365454493 397.36402446968157Q1644.3000959377732 396.9642021612548 1640.457359306782 396.9642021612548L1640.457359306782 396.9642021612548Q1635.6594916056597 396.9642021612548 1631.8167549746686 398.0081826332582Q1627.9740183436775 399.05216310526157 1625.7305709463935 401.6065834090997Q1623.5093358995778 404.1610037129378 1623.5093358995778 408.80338496078275L1623.5093358995778 408.80338496078275Q1623.5093358995778 412.31293633475167 1625.108625133285 414.46753433016295Q1626.707914366992 416.6443446760424 1631.1725968110918 418.06593510600453Q1635.6594916056597 419.5097378864348 1644.1223971340278 420.953540666865L1644.1223971340278 420.953540666865Q1654.0513177932944 422.55282990057236 1660.0486524196967 424.9517637511334Q1666.0459870460995 427.3506976016944 1668.7558938032148 431.659893592517Q1671.4880129107983 435.99130193380773 1671.4880129107983 443.8322616490674L1671.4880129107983 443.8322616490674Q1671.4880129107983 457.8926794954112 1663.1583814852388 463.4235547619824Q1654.850962410148 468.9322176780855 1640.3018728535048 468.9322176780855Z " fill="#023020" transform="matrix(0.5234856362229608,0,0,0.523485636222961,0,76.1193888033768)"/></g></svg>